<svg viewBox="0 0 103.31 98.35" xmlns="http://www.w3.org/2000/svg"><g style="fill:#495057;fill-opacity:1;isolation:isolate"><g style="fill:#495057;fill-opacity:1"><path d="M103.07 43.29C96.38 15.41 67.81.94 45.54 4.09a55.51 55.51 0 0 0-17.65 5.77C-5.15 28.5-6.54 70.5 17.36 93.7l8.15-8.15C-.93 59.46 14.6 19.23 49.78 15.12 82 12.26 105.54 50.45 85.59 78.76c-3.68-3.68-6.43-6.37-6.43-6.37l-8 29.62 29.62-8-7-7.1s14.96-16.4 9.29-43.62Zm-27.2 17H64.53l2.07-10.15h12.26V41H68.31l3.43-17.88h-9.45L58.86 41h-8.7l3.39-17.88h-9.63L40.54 41h-12.7v9.19h11.07l-2.06 10.14H24.67v9h10.46l-3.25 17.9h9.45l3.34-17.85h8.53l-3.43 17.85h9.67l3.38-17.85h13.05ZM55 60.33h-8.62l2.07-10.19h8.61Z" transform="translate(-1.04 -3.67)" style="fill:#495057;fill-opacity:1;fill-rule:evenodd" data-name="icon"/></g></g></svg>